<?xml version="1.0" standalone="no"?>
<!DOCTYPE svg PUBLIC "-//W3C//DTD SVG 20010904//EN"
 "http://www.w3.org/TR/2001/REC-SVG-20010904/DTD/svg10.dtd">
<svg version="1.0" xmlns="http://www.w3.org/2000/svg"
 width="700.000000pt" height="700.000000pt" viewBox="0 0 700.000000 700.000000"
 preserveAspectRatio="xMidYMid meet">
<metadata>
Created by potrace 1.14, written by Peter Selinger 2001-2017
</metadata>
<g transform="translate(0.000000,700.000000) scale(0.100000,-0.100000)"
fill="#000000" stroke="none">
<path d="M727 6564 c-1 -2 -16 -5 -33 -8 -95 -17 -187 -69 -269 -151 -104
-105 -149 -216 -150 -370 0 -193 60 -311 268 -517 48 -48 128 -117 177 -154
50 -37 89 -70 88 -73 -45 -89 -107 -223 -129 -279 -60 -152 -127 -403 -144
-542 -4 -30 -8 -57 -10 -60 -2 -3 -6 -43 -10 -90 -4 -47 -9 -94 -11 -105 -6
-26 -5 -394 1 -465 4 -52 8 -90 20 -200 8 -70 26 -179 45 -275 5 -27 12 -61
14 -75 6 -35 52 -220 75 -305 177 -641 555 -1422 1043 -2151 51 -76 111 -153
144 -183 79 -73 184 -123 279 -136 188 -24 923 -24 1150 0 22 2 69 7 105 10
90 7 136 12 200 20 30 4 66 9 80 10 14 1 43 5 65 9 22 4 56 9 75 11 19 3 48 7
63 11 16 3 38 7 50 9 85 10 312 61 472 105 891 245 1566 709 1958 1348 53 86
177 322 177 337 0 4 6 21 14 38 51 116 131 387 150 512 8 47 14 89 21 130 20
122 27 536 11 685 -24 228 -76 441 -153 635 -100 250 -225 439 -413 625 -177
175 -425 327 -639 391 -39 12 -40 13 -20 27 11 8 59 31 106 51 l86 38 63 -39
c90 -54 185 -78 293 -74 47 2 95 6 106 9 199 55 350 203 399 392 14 55 17 228
4 275 -41 149 -95 246 -191 341 -72 72 -82 79 -187 129 -103 50 -199 71 -330
72 -139 2 -194 -4 -325 -36 -418 -103 -904 -388 -1267 -743 l-77 -75 -53 54
c-270 272 -647 463 -1093 554 -271 55 -654 54 -920 -1 -44 -9 -88 -19 -98 -20
-10 -2 -84 -27 -165 -55 -176 -60 -179 -61 -265 -61 -114 1 -226 65 -325 188
-75 93 -122 132 -207 173 -87 42 -175 62 -260 59 -30 -1 -56 -4 -58 -5z m1943
-1318 c47 -3 96 -8 110 -11 14 -3 40 -8 59 -11 19 -3 45 -10 58 -15 13 -5 23
-7 23 -4 0 4 98 -28 135 -44 144 -63 236 -123 313 -205 55 -59 107 -146 118
-200 15 -69 20 -122 18 -216 -3 -178 46 -306 160 -420 124 -125 306 -179 491
-146 55 10 192 79 236 118 76 69 96 84 166 124 202 115 451 139 646 63 104
-41 210 -127 277 -224 72 -104 139 -295 156 -440 3 -33 8 -69 11 -80 5 -27 5
-324 -1 -355 -3 -14 -7 -47 -11 -75 -39 -316 -214 -660 -452 -886 -40 -39
-164 -143 -198 -167 -206 -146 -433 -259 -705 -349 -97 -33 -368 -105 -435
-116 -16 -3 -55 -10 -85 -16 -106 -20 -279 -45 -375 -55 -58 -6 -182 -17 -240
-22 -81 -7 -625 -13 -640 -8 -8 3 -15 10 -15 15 0 4 -24 46 -54 92 -202 313
-456 808 -588 1147 -97 248 -190 557 -222 740 -3 19 -8 44 -10 55 -2 11 -7 42
-10 68 -4 27 -9 59 -12 70 -8 44 -18 215 -18 322 1 349 75 630 230 861 113
171 272 303 420 349 80 26 127 34 234 42 47 3 86 7 88 8 2 2 11 1 20 -1 9 -1
55 -5 102 -8z"/>
</g>
</svg>
